<mxfile host="app.diagrams.net" modified="2021-07-24T09:47:18.061Z" agent="5.0 (Macintosh; Intel Mac OS X 10_15_7) AppleWebKit/537.36 (KHTML, like Gecko) Chrome/92.0.4515.107 Safari/537.36 Edg/92.0.902.55" etag="7rL3LenCJ_Ey1H2uvgFa" version="14.9.2" type="github">
  <diagram name="Page-1" id="13e1069c-82ec-6db2-03f1-153e76fe0fe0">
    <mxGraphModel dx="2466" dy="1154" grid="0" gridSize="10" guides="1" tooltips="1" connect="1" arrows="1" fold="1" page="0" pageScale="1" pageWidth="1100" pageHeight="850" background="none" math="0" shadow="0">
      <root>
        <mxCell id="0" />
        <mxCell id="1" parent="0" />
        <mxCell id="7baba1c4bc27f4b0-2" value="&lt;span style=&quot;font-family: &amp;#34;helvetica&amp;#34;&quot;&gt;Recording&lt;/span&gt;&lt;br style=&quot;font-family: &amp;#34;helvetica&amp;#34;&quot;&gt;&lt;span style=&quot;font-family: &amp;#34;helvetica&amp;#34;&quot;&gt;FlowManager&lt;/span&gt;" style="shape=umlLifeline;perimeter=lifelinePerimeter;whiteSpace=wrap;html=1;container=1;collapsible=0;recursiveResize=0;outlineConnect=0;rounded=1;shadow=0;comic=0;labelBackgroundColor=none;strokeWidth=2;fontFamily=Verdana;fontSize=14;align=center;" parent="1" vertex="1">
          <mxGeometry x="240" y="80" width="100" height="1065" as="geometry" />
        </mxCell>
        <mxCell id="7baba1c4bc27f4b0-10" value="" style="html=1;points=[];perimeter=orthogonalPerimeter;rounded=0;shadow=0;comic=0;labelBackgroundColor=none;strokeWidth=1;fontFamily=Verdana;fontSize=14;align=center;" parent="7baba1c4bc27f4b0-2" vertex="1">
          <mxGeometry x="45" y="100" width="10" height="767" as="geometry" />
        </mxCell>
        <mxCell id="7baba1c4bc27f4b0-3" value="&lt;span style=&quot;font-family: &amp;#34;helvetica&amp;#34;&quot;&gt;Recording&lt;/span&gt;&lt;br style=&quot;font-family: &amp;#34;helvetica&amp;#34;&quot;&gt;&lt;span style=&quot;font-family: &amp;#34;helvetica&amp;#34;&quot;&gt;Helper&lt;/span&gt;" style="shape=umlLifeline;perimeter=lifelinePerimeter;whiteSpace=wrap;html=1;container=1;collapsible=0;recursiveResize=0;outlineConnect=0;rounded=1;shadow=0;comic=0;labelBackgroundColor=none;strokeWidth=2;fontFamily=Verdana;fontSize=14;align=center;" parent="1" vertex="1">
          <mxGeometry x="400" y="80" width="100" height="1065" as="geometry" />
        </mxCell>
        <mxCell id="7baba1c4bc27f4b0-13" value="" style="html=1;points=[];perimeter=orthogonalPerimeter;rounded=0;shadow=0;comic=0;labelBackgroundColor=none;strokeWidth=1;fontFamily=Verdana;fontSize=14;align=center;" parent="7baba1c4bc27f4b0-3" vertex="1">
          <mxGeometry x="45" y="120" width="10" height="39" as="geometry" />
        </mxCell>
        <mxCell id="7baba1c4bc27f4b0-4" value="&lt;span style=&quot;font-family: &amp;#34;helvetica&amp;#34;&quot;&gt;Recording&lt;/span&gt;&lt;br style=&quot;font-family: &amp;#34;helvetica&amp;#34;&quot;&gt;&lt;span style=&quot;font-family: &amp;#34;helvetica&amp;#34;&quot;&gt;DataManager&lt;/span&gt;" style="shape=umlLifeline;perimeter=lifelinePerimeter;whiteSpace=wrap;html=1;container=1;collapsible=0;recursiveResize=0;outlineConnect=0;rounded=1;shadow=0;comic=0;labelBackgroundColor=none;strokeWidth=2;fontFamily=Verdana;fontSize=14;align=center;" parent="1" vertex="1">
          <mxGeometry x="540" y="80" width="100" height="1065" as="geometry" />
        </mxCell>
        <mxCell id="7baba1c4bc27f4b0-5" value="&lt;span style=&quot;text-align: left&quot;&gt;录唱前置节点&lt;/span&gt;" style="shape=umlLifeline;perimeter=lifelinePerimeter;whiteSpace=wrap;html=1;container=1;collapsible=0;recursiveResize=0;outlineConnect=0;rounded=1;shadow=0;comic=0;labelBackgroundColor=none;strokeWidth=2;fontFamily=Verdana;fontSize=14;align=center;" parent="1" vertex="1">
          <mxGeometry x="680" y="80" width="100" height="1063" as="geometry" />
        </mxCell>
        <mxCell id="7baba1c4bc27f4b0-6" value="&lt;span style=&quot;text-align: left&quot;&gt;录唱中节点&lt;/span&gt;" style="shape=umlLifeline;perimeter=lifelinePerimeter;whiteSpace=wrap;html=1;container=1;collapsible=0;recursiveResize=0;outlineConnect=0;rounded=1;shadow=0;comic=0;labelBackgroundColor=none;strokeWidth=2;fontFamily=Verdana;fontSize=14;align=center;" parent="1" vertex="1">
          <mxGeometry x="820" y="80" width="100" height="1063" as="geometry" />
        </mxCell>
        <mxCell id="7baba1c4bc27f4b0-7" value="&lt;span style=&quot;text-align: left&quot;&gt;录唱预览节点&lt;/span&gt;" style="shape=umlLifeline;perimeter=lifelinePerimeter;whiteSpace=wrap;html=1;container=1;collapsible=0;recursiveResize=0;outlineConnect=0;rounded=1;shadow=0;comic=0;labelBackgroundColor=none;strokeWidth=2;fontFamily=Verdana;fontSize=14;align=center;" parent="1" vertex="1">
          <mxGeometry x="960" y="80" width="100" height="1065" as="geometry" />
        </mxCell>
        <mxCell id="7baba1c4bc27f4b0-25" value="" style="html=1;points=[];perimeter=orthogonalPerimeter;rounded=0;shadow=0;comic=0;labelBackgroundColor=none;strokeColor=#000000;strokeWidth=1;fillColor=#FFFFFF;fontFamily=Verdana;fontSize=14;fontColor=#000000;align=center;" parent="7baba1c4bc27f4b0-7" vertex="1">
          <mxGeometry x="45" y="704" width="10" height="279" as="geometry" />
        </mxCell>
        <mxCell id="7baba1c4bc27f4b0-8" value="&lt;span style=&quot;font-family: &amp;#34;helvetica&amp;#34;&quot;&gt;Strategy&lt;/span&gt;&lt;br style=&quot;font-family: &amp;#34;helvetica&amp;#34;&quot;&gt;&lt;span style=&quot;font-family: &amp;#34;helvetica&amp;#34;&quot;&gt;Manager&lt;/span&gt;" style="shape=umlLifeline;perimeter=lifelinePerimeter;whiteSpace=wrap;html=1;container=0;collapsible=0;recursiveResize=0;outlineConnect=0;rounded=1;shadow=0;comic=0;labelBackgroundColor=none;strokeWidth=2;fontFamily=Verdana;fontSize=14;align=center;" parent="1" vertex="1">
          <mxGeometry x="101" y="82" width="99" height="1065" as="geometry" />
        </mxCell>
        <mxCell id="7baba1c4bc27f4b0-19" value="" style="html=1;points=[];perimeter=orthogonalPerimeter;rounded=0;shadow=0;comic=0;labelBackgroundColor=none;strokeWidth=1;fontFamily=Verdana;fontSize=14;align=center;" parent="1" vertex="1">
          <mxGeometry x="725" y="331.5" width="10" height="154.5" as="geometry" />
        </mxCell>
        <mxCell id="7baba1c4bc27f4b0-11" value="传入strategy" style="html=1;verticalAlign=bottom;endArrow=block;entryX=0;entryY=0;labelBackgroundColor=none;fontFamily=Verdana;fontSize=14;edgeStyle=elbowEdgeStyle;elbow=vertical;" parent="1" source="7baba1c4bc27f4b0-9" target="7baba1c4bc27f4b0-10" edge="1">
          <mxGeometry relative="1" as="geometry">
            <mxPoint x="220" y="190" as="sourcePoint" />
          </mxGeometry>
        </mxCell>
        <mxCell id="7baba1c4bc27f4b0-14" value="去判断版权" style="html=1;verticalAlign=bottom;endArrow=block;labelBackgroundColor=none;fontFamily=Verdana;fontSize=14;edgeStyle=elbowEdgeStyle;elbow=vertical;" parent="1" source="7baba1c4bc27f4b0-10" edge="1">
          <mxGeometry relative="1" as="geometry">
            <mxPoint x="370" y="200" as="sourcePoint" />
            <mxPoint x="445" y="214" as="targetPoint" />
            <Array as="points">
              <mxPoint x="307" y="214" />
            </Array>
          </mxGeometry>
        </mxCell>
        <mxCell id="2f8TtKN7BCYIr3ZQ2cgl-4" value="" style="endArrow=classic;html=1;fontSize=14;" edge="1" parent="1" source="7baba1c4bc27f4b0-2">
          <mxGeometry width="50" height="50" relative="1" as="geometry">
            <mxPoint x="764" y="428" as="sourcePoint" />
            <mxPoint x="728" y="340" as="targetPoint" />
            <Array as="points">
              <mxPoint x="521" y="340" />
              <mxPoint x="631" y="340" />
            </Array>
          </mxGeometry>
        </mxCell>
        <mxCell id="2f8TtKN7BCYIr3ZQ2cgl-5" value="创建prepareNode" style="edgeLabel;html=1;align=center;verticalAlign=middle;resizable=0;points=[];fontSize=14;" vertex="1" connectable="0" parent="2f8TtKN7BCYIr3ZQ2cgl-4">
          <mxGeometry x="-0.4822" y="-1" relative="1" as="geometry">
            <mxPoint x="-26" y="-2" as="offset" />
          </mxGeometry>
        </mxCell>
        <mxCell id="2f8TtKN7BCYIr3ZQ2cgl-6" value="" style="html=1;points=[];perimeter=orthogonalPerimeter;rounded=0;shadow=0;comic=0;labelBackgroundColor=none;strokeWidth=1;fontFamily=Verdana;fontSize=14;align=center;" vertex="1" parent="1">
          <mxGeometry x="585" y="195" width="10" height="787" as="geometry" />
        </mxCell>
        <mxCell id="2f8TtKN7BCYIr3ZQ2cgl-7" value="下载伴奏文件" style="text;html=1;align=center;verticalAlign=middle;resizable=0;points=[];autosize=1;strokeColor=none;fontSize=14;" vertex="1" parent="1">
          <mxGeometry x="467" y="195" width="94" height="21" as="geometry" />
        </mxCell>
        <mxCell id="2f8TtKN7BCYIr3ZQ2cgl-10" value="" style="endArrow=classic;html=1;fontSize=14;exitX=1;exitY=0.59;exitDx=0;exitDy=0;exitPerimeter=0;" edge="1" parent="1" source="7baba1c4bc27f4b0-13" target="7baba1c4bc27f4b0-4">
          <mxGeometry width="50" height="50" relative="1" as="geometry">
            <mxPoint x="764" y="428" as="sourcePoint" />
            <mxPoint x="583" y="226" as="targetPoint" />
          </mxGeometry>
        </mxCell>
        <mxCell id="2f8TtKN7BCYIr3ZQ2cgl-14" value="" style="endArrow=classic;html=1;fontSize=14;dashed=1;entryX=1.45;entryY=0.358;entryDx=0;entryDy=0;entryPerimeter=0;" edge="1" parent="1">
          <mxGeometry width="50" height="50" relative="1" as="geometry">
            <mxPoint x="718.5" y="433.01" as="sourcePoint" />
            <mxPoint x="595" y="432.9960000000001" as="targetPoint" />
          </mxGeometry>
        </mxCell>
        <mxCell id="2f8TtKN7BCYIr3ZQ2cgl-16" value="储存节点数据" style="edgeLabel;html=1;align=center;verticalAlign=middle;resizable=0;points=[];fontSize=14;" vertex="1" connectable="0" parent="2f8TtKN7BCYIr3ZQ2cgl-14">
          <mxGeometry x="0.2538" y="1" relative="1" as="geometry">
            <mxPoint x="21" y="-1" as="offset" />
          </mxGeometry>
        </mxCell>
        <mxCell id="2f8TtKN7BCYIr3ZQ2cgl-19" value="" style="html=1;points=[];perimeter=orthogonalPerimeter;rounded=0;shadow=0;comic=0;labelBackgroundColor=none;strokeWidth=1;fontFamily=Verdana;fontSize=14;align=center;" vertex="1" parent="1">
          <mxGeometry x="865" y="532" width="10" height="253" as="geometry" />
        </mxCell>
        <mxCell id="2f8TtKN7BCYIr3ZQ2cgl-20" value="" style="endArrow=classic;html=1;fontSize=14;dashed=1;" edge="1" parent="1">
          <mxGeometry width="50" height="50" relative="1" as="geometry">
            <mxPoint x="862" y="665" as="sourcePoint" />
            <mxPoint x="599" y="665" as="targetPoint" />
          </mxGeometry>
        </mxCell>
        <mxCell id="2f8TtKN7BCYIr3ZQ2cgl-21" value="生成节点数据" style="edgeLabel;html=1;align=center;verticalAlign=middle;resizable=0;points=[];fontSize=14;" vertex="1" connectable="0" parent="2f8TtKN7BCYIr3ZQ2cgl-20">
          <mxGeometry x="0.2538" y="1" relative="1" as="geometry">
            <mxPoint x="10" y="-2" as="offset" />
          </mxGeometry>
        </mxCell>
        <mxCell id="2f8TtKN7BCYIr3ZQ2cgl-31" value="" style="endArrow=classic;html=1;fontSize=14;dashed=1;" edge="1" parent="1">
          <mxGeometry width="50" height="50" relative="1" as="geometry">
            <mxPoint x="579" y="291" as="sourcePoint" />
            <mxPoint x="298" y="291" as="targetPoint" />
          </mxGeometry>
        </mxCell>
        <mxCell id="2f8TtKN7BCYIr3ZQ2cgl-32" value="callback" style="edgeLabel;html=1;align=center;verticalAlign=middle;resizable=0;points=[];fontSize=14;" vertex="1" connectable="0" parent="2f8TtKN7BCYIr3ZQ2cgl-31">
          <mxGeometry x="0.2538" y="1" relative="1" as="geometry">
            <mxPoint x="3" y="-2" as="offset" />
          </mxGeometry>
        </mxCell>
        <mxCell id="2f8TtKN7BCYIr3ZQ2cgl-35" value="" style="endArrow=classic;html=1;fontSize=14;dashed=1;" edge="1" parent="1">
          <mxGeometry width="50" height="50" relative="1" as="geometry">
            <mxPoint x="721.5" y="464" as="sourcePoint" />
            <mxPoint x="297" y="464" as="targetPoint" />
          </mxGeometry>
        </mxCell>
        <mxCell id="2f8TtKN7BCYIr3ZQ2cgl-36" value="请求跳转下一节点" style="edgeLabel;html=1;align=center;verticalAlign=middle;resizable=0;points=[];fontSize=14;" vertex="1" connectable="0" parent="2f8TtKN7BCYIr3ZQ2cgl-35">
          <mxGeometry x="0.2538" y="1" relative="1" as="geometry">
            <mxPoint x="12" as="offset" />
          </mxGeometry>
        </mxCell>
        <mxCell id="2f8TtKN7BCYIr3ZQ2cgl-38" value="" style="endArrow=classic;html=1;fontSize=14;" edge="1" parent="1">
          <mxGeometry width="50" height="50" relative="1" as="geometry">
            <mxPoint x="299" y="550" as="sourcePoint" />
            <mxPoint x="862" y="550" as="targetPoint" />
            <Array as="points">
              <mxPoint x="421" y="550" />
              <mxPoint x="530.5" y="550" />
              <mxPoint x="640.5" y="550" />
            </Array>
          </mxGeometry>
        </mxCell>
        <mxCell id="2f8TtKN7BCYIr3ZQ2cgl-39" value="创建recordingNode" style="edgeLabel;html=1;align=center;verticalAlign=middle;resizable=0;points=[];fontSize=14;" vertex="1" connectable="0" parent="2f8TtKN7BCYIr3ZQ2cgl-38">
          <mxGeometry x="-0.4822" y="-1" relative="1" as="geometry">
            <mxPoint x="-2" y="-4" as="offset" />
          </mxGeometry>
        </mxCell>
        <mxCell id="2f8TtKN7BCYIr3ZQ2cgl-40" value="" style="endArrow=classic;html=1;fontSize=14;dashed=1;" edge="1" parent="1">
          <mxGeometry width="50" height="50" relative="1" as="geometry">
            <mxPoint x="861" y="715" as="sourcePoint" />
            <mxPoint x="299" y="715" as="targetPoint" />
          </mxGeometry>
        </mxCell>
        <mxCell id="2f8TtKN7BCYIr3ZQ2cgl-41" value="请求跳转下一节点" style="edgeLabel;html=1;align=center;verticalAlign=middle;resizable=0;points=[];fontSize=14;" vertex="1" connectable="0" parent="2f8TtKN7BCYIr3ZQ2cgl-40">
          <mxGeometry x="0.2538" y="1" relative="1" as="geometry">
            <mxPoint x="12" as="offset" />
          </mxGeometry>
        </mxCell>
        <mxCell id="7baba1c4bc27f4b0-9" value="" style="html=1;points=[];perimeter=orthogonalPerimeter;rounded=0;shadow=0;comic=0;labelBackgroundColor=none;strokeWidth=1;fontFamily=Verdana;fontSize=14;align=center;" parent="1" vertex="1">
          <mxGeometry x="145" y="164" width="10" height="42" as="geometry" />
        </mxCell>
        <mxCell id="2f8TtKN7BCYIr3ZQ2cgl-52" value="" style="endArrow=classic;html=1;fontSize=14;dashed=1;strokeWidth=2;fillColor=#ffe6cc;strokeColor=#D79B00;" edge="1" parent="1">
          <mxGeometry width="50" height="50" relative="1" as="geometry">
            <mxPoint x="860" y="774" as="sourcePoint" />
            <mxPoint x="158" y="774" as="targetPoint" />
          </mxGeometry>
        </mxCell>
        <mxCell id="2f8TtKN7BCYIr3ZQ2cgl-53" value="重唱逻辑" style="edgeLabel;html=1;align=center;verticalAlign=middle;resizable=0;points=[];fontSize=14;fontColor=#D79B00;" vertex="1" connectable="0" parent="2f8TtKN7BCYIr3ZQ2cgl-52">
          <mxGeometry x="0.2538" y="1" relative="1" as="geometry">
            <mxPoint x="79" y="-1" as="offset" />
          </mxGeometry>
        </mxCell>
        <mxCell id="2f8TtKN7BCYIr3ZQ2cgl-55" value="" style="endArrow=classic;html=1;fontSize=14;dashed=1;strokeWidth=2;fillColor=#ffe6cc;strokeColor=#D79B00;" edge="1" parent="1">
          <mxGeometry width="50" height="50" relative="1" as="geometry">
            <mxPoint x="1001" y="1036" as="sourcePoint" />
            <mxPoint x="159" y="1036" as="targetPoint" />
          </mxGeometry>
        </mxCell>
        <mxCell id="2f8TtKN7BCYIr3ZQ2cgl-56" value="重唱、添加视频" style="edgeLabel;html=1;align=center;verticalAlign=middle;resizable=0;points=[];fontSize=14;fontColor=#D79B00;" vertex="1" connectable="0" parent="2f8TtKN7BCYIr3ZQ2cgl-55">
          <mxGeometry x="0.2538" y="1" relative="1" as="geometry">
            <mxPoint x="47" y="-1" as="offset" />
          </mxGeometry>
        </mxCell>
        <mxCell id="2f8TtKN7BCYIr3ZQ2cgl-57" value="" style="html=1;points=[];perimeter=orthogonalPerimeter;rounded=0;shadow=0;comic=0;labelBackgroundColor=none;strokeWidth=1;fontFamily=Verdana;fontSize=14;align=center;" vertex="1" parent="1">
          <mxGeometry x="145" y="752" width="10" height="42" as="geometry" />
        </mxCell>
        <mxCell id="2f8TtKN7BCYIr3ZQ2cgl-58" value="" style="html=1;points=[];perimeter=orthogonalPerimeter;rounded=0;shadow=0;comic=0;labelBackgroundColor=none;strokeWidth=1;fontFamily=Verdana;fontSize=14;align=center;" vertex="1" parent="1">
          <mxGeometry x="145" y="1013" width="10" height="42" as="geometry" />
        </mxCell>
        <mxCell id="2f8TtKN7BCYIr3ZQ2cgl-60" value="&amp;nbsp;" style="text;html=1;align=center;verticalAlign=middle;resizable=0;points=[];autosize=1;strokeColor=none;fontSize=14;fontColor=#D79B00;" vertex="1" parent="1">
          <mxGeometry x="-16" y="10" width="14" height="21" as="geometry" />
        </mxCell>
        <mxCell id="2f8TtKN7BCYIr3ZQ2cgl-61" value="&amp;nbsp;" style="text;html=1;align=center;verticalAlign=middle;resizable=0;points=[];autosize=1;strokeColor=none;fontSize=14;fontColor=#D79B00;" vertex="1" parent="1">
          <mxGeometry x="1160" y="1204" width="14" height="21" as="geometry" />
        </mxCell>
        <mxCell id="2f8TtKN7BCYIr3ZQ2cgl-64" value="" style="endArrow=classic;html=1;fontSize=14;" edge="1" parent="1">
          <mxGeometry width="50" height="50" relative="1" as="geometry">
            <mxPoint x="598" y="386" as="sourcePoint" />
            <mxPoint x="722" y="386" as="targetPoint" />
          </mxGeometry>
        </mxCell>
        <mxCell id="2f8TtKN7BCYIr3ZQ2cgl-65" value="数据输入" style="edgeLabel;html=1;align=center;verticalAlign=middle;resizable=0;points=[];fontSize=14;" vertex="1" connectable="0" parent="2f8TtKN7BCYIr3ZQ2cgl-64">
          <mxGeometry x="-0.2581" relative="1" as="geometry">
            <mxPoint x="10" y="-1" as="offset" />
          </mxGeometry>
        </mxCell>
        <mxCell id="2f8TtKN7BCYIr3ZQ2cgl-66" value="" style="endArrow=classic;html=1;fontSize=14;" edge="1" parent="1">
          <mxGeometry width="50" height="50" relative="1" as="geometry">
            <mxPoint x="598" y="608" as="sourcePoint" />
            <mxPoint x="862" y="608" as="targetPoint" />
          </mxGeometry>
        </mxCell>
        <mxCell id="2f8TtKN7BCYIr3ZQ2cgl-67" value="数据输入" style="edgeLabel;html=1;align=center;verticalAlign=middle;resizable=0;points=[];fontSize=14;" vertex="1" connectable="0" parent="2f8TtKN7BCYIr3ZQ2cgl-66">
          <mxGeometry x="-0.2581" relative="1" as="geometry">
            <mxPoint x="10" y="-1" as="offset" />
          </mxGeometry>
        </mxCell>
        <mxCell id="2f8TtKN7BCYIr3ZQ2cgl-42" value="" style="endArrow=classic;html=1;fontSize=14;" edge="1" parent="1">
          <mxGeometry width="50" height="50" relative="1" as="geometry">
            <mxPoint x="298" y="822" as="sourcePoint" />
            <mxPoint x="999" y="822" as="targetPoint" />
            <Array as="points">
              <mxPoint x="529.5" y="822" />
              <mxPoint x="639.5" y="822" />
            </Array>
          </mxGeometry>
        </mxCell>
        <mxCell id="2f8TtKN7BCYIr3ZQ2cgl-43" value="创建previewNode" style="edgeLabel;html=1;align=center;verticalAlign=middle;resizable=0;points=[];fontSize=14;" vertex="1" connectable="0" parent="2f8TtKN7BCYIr3ZQ2cgl-42">
          <mxGeometry x="-0.4822" y="-1" relative="1" as="geometry">
            <mxPoint x="33" y="-2" as="offset" />
          </mxGeometry>
        </mxCell>
        <mxCell id="2f8TtKN7BCYIr3ZQ2cgl-68" value="" style="endArrow=classic;html=1;fontSize=14;" edge="1" parent="1">
          <mxGeometry width="50" height="50" relative="1" as="geometry">
            <mxPoint x="599" y="894" as="sourcePoint" />
            <mxPoint x="1000" y="894" as="targetPoint" />
          </mxGeometry>
        </mxCell>
        <mxCell id="2f8TtKN7BCYIr3ZQ2cgl-69" value="数据输入" style="edgeLabel;html=1;align=center;verticalAlign=middle;resizable=0;points=[];fontSize=14;" vertex="1" connectable="0" parent="2f8TtKN7BCYIr3ZQ2cgl-68">
          <mxGeometry x="-0.2581" relative="1" as="geometry">
            <mxPoint x="44" as="offset" />
          </mxGeometry>
        </mxCell>
        <mxCell id="2f8TtKN7BCYIr3ZQ2cgl-29" value="" style="endArrow=classic;html=1;fontSize=14;dashed=1;" edge="1" parent="1">
          <mxGeometry width="50" height="50" relative="1" as="geometry">
            <mxPoint x="996" y="961" as="sourcePoint" />
            <mxPoint x="595" y="961" as="targetPoint" />
          </mxGeometry>
        </mxCell>
        <mxCell id="2f8TtKN7BCYIr3ZQ2cgl-30" value="生成节点数据" style="edgeLabel;html=1;align=center;verticalAlign=middle;resizable=0;points=[];fontSize=14;" vertex="1" connectable="0" parent="2f8TtKN7BCYIr3ZQ2cgl-29">
          <mxGeometry x="0.2538" y="1" relative="1" as="geometry">
            <mxPoint x="40" as="offset" />
          </mxGeometry>
        </mxCell>
      </root>
    </mxGraphModel>
  </diagram>
</mxfile>
